# xmcd CD database file
# Copyright (C) 1997 Ti Kan
# 
# Track frame offsets:
#     150
#     11330
#     26372
#     38202
#     63402
#     81620
#     99305
#     115555
#     133640
#     149205
# 
# Disc length: 2138 seconds
# 
# Revision: 1
# Processed by: cddbd v1.4b41PL1 Copyright (c) Steve Scherf et al.
# Submitted via: DiscPlay 4.0.4
# 
DISCID=8208580a
DTITLE=Bruce Anfinson - Home Is Where Montana Is
DYEAR=1900
DGENRE=
TTITLE0=GMC Cruise
TTITLE1=Last Cattle Drive
TTITLE2=Red Wing
TTITLE3=Ghost Riders In the Sky
TTITLE4=(It's Got To Be) Fresh Bread
TTITLE5=Home Is Where Montana Is
TTITLE6=Cool Water
TTITLE7=Come Along Ya Little Huckleberries
TTITLE8=Lake Cumberland
TTITLE9=Farewell To Nova Scotia
EXTD=
EXTT0=
EXTT1=
EXTT2=
EXTT3=
EXTT4=
EXTT5=
EXTT6=
EXTT7=
EXTT8=
EXTT9=
PLAYORDER=
